<svg width="20" height="20" viewBox="0 0 20 20" fill="none" xmlns="http://www.w3.org/2000/svg">
<path fill-rule="evenodd" clip-rule="evenodd" d="M13.7264 5.8H16.4667C17.203 5.8 17.8 6.39696 17.8 7.13334V16.4667C17.8 17.2031 17.203 17.8 16.4667 17.8H7.13332C6.39694 17.8 5.79999 17.2031 5.79999 16.4667V13.8101C5.81868 14.075 5.93607 14.3134 6.11316 14.4902C6.3062 14.6833 6.57652 14.8025 6.87138 14.8022C7.42107 14.8024 7.87371 14.3864 7.93332 13.8526V14.8667C7.93332 15.3085 8.29149 15.6667 8.73332 15.6667H14.8667C15.3085 15.6667 15.6667 15.3085 15.6667 14.8667V8.73334C15.6667 8.29151 15.3085 7.93334 14.8667 7.93334H13.7923C14.0367 7.90406 14.2559 7.79066 14.4214 7.62502C14.6144 7.43197 14.7336 7.16166 14.7333 6.8668C14.7336 6.29755 14.2874 5.83239 13.7264 5.8ZM9.93113 7.93334H7.93332V7.94082H7.93112V10H5.79999V7.13334C5.79999 6.39696 6.39694 5.8 7.13332 5.8H8.66709L9.93113 6.0772V7.93334ZM9.93113 6.07659L8.66916 5.8H9.93113V6.07659Z" fill="white"/>
<path d="M2.06822 5.79562H5.7991V2.06833C5.7991 1.47835 6.27518 1 6.86525 1C7.45531 1 7.93114 1.47835 7.93114 2.06859V5.7982H11.6638C12.2539 5.7982 12.7336 6.27655 12.7333 6.8668C12.7336 7.16166 12.6144 7.43198 12.4214 7.62502C12.228 7.81858 11.9613 7.94082 11.6667 7.94082H7.93114V11.6653C7.93114 11.9604 7.81405 12.2276 7.62073 12.4204C7.4274 12.6137 7.16144 12.7333 6.86628 12.7333C6.27647 12.7333 5.7991 12.255 5.7991 11.6653V7.94056H2.06822C1.47815 7.94056 0.999742 7.45808 1 6.86809C1.00026 6.27836 1.47867 5.79562 2.06822 5.79562Z" fill="white"/>
</svg>
