<svg width="20" height="20" viewBox="0 0 20 20" fill="none" xmlns="http://www.w3.org/2000/svg">
<path d="M7.5 8.75L9.5 10.5L11.5 8.75L9.75 10.75L11.5 12.75L9.5 11L7.5 12.75L9.25 10.75L7.5 8.75Z" fill="black" stroke="black" stroke-width="1.5" stroke-linejoin="round"/>
<path d="M14.375 5.33334L13.7242 14.6767C13.6673 15.495 13.6388 15.9042 13.4542 16.2144C13.2916 16.4876 13.0464 16.7072 12.7509 16.8443C12.4152 17 11.9868 17 11.13 17H7.8699C7.01312 17 6.58473 17 6.24906 16.8443C5.95354 16.7072 5.70834 16.4876 5.54578 16.2144C5.36114 15.9042 5.33265 15.495 5.27566 14.6767L4.62496 5.33334M3.56506 5.33334H15.5445M12.75 5.33334L12.5075 4.02285C12.2944 3.41088 12.1878 3.10489 11.9902 2.87867C11.8157 2.67889 11.5916 2.52426 11.3384 2.42895C11.0517 2.32101 10.7148 2.32101 10.0409 2.32101H8.91384C8.23995 2.32101 7.90309 2.32101 7.61637 2.42895C7.3632 2.52426 7.13908 2.67889 6.96456 2.87867C6.76693 3.10489 6.66039 3.41088 6.44729 4.02285L6.24996 5.33334" stroke="black" stroke-width="2" stroke-linecap="round" stroke-linejoin="round"/>
</svg>
