<svg width="20" height="20" viewBox="0 0 20 20" fill="none" xmlns="http://www.w3.org/2000/svg">
<path d="M9.07672 9.28081L12.4995 5.36337C12.6849 5.15117 12.9471 5.02133 13.2282 5.0024C13.5094 4.98347 13.7866 5.07701 13.9988 5.26244C14.2109 5.44787 14.3408 5.71 14.3597 5.99117C14.3786 6.27233 14.2851 6.5495 14.0997 6.7617L10.6769 10.6791C10.5851 10.7842 10.4735 10.8702 10.3484 10.9321C10.2234 10.994 10.0874 11.0307 9.94817 11.0401C9.80895 11.0495 9.66925 11.0313 9.53704 10.9867C9.40484 10.9421 9.28271 10.8719 9.17764 10.7801C9.07257 10.6882 8.98662 10.5766 8.92468 10.4516C8.86275 10.3266 8.82605 10.1906 8.81668 10.0513C8.8073 9.91212 8.82544 9.77242 8.87006 9.64021C8.91468 9.508 8.9849 9.38588 9.07672 9.28081ZM6.49652 15.313C6.29731 15.5121 6.0272 15.6239 5.74557 15.6239C5.46393 15.6239 5.19382 15.5121 4.99461 15.313L1.81086 12.1259C1.71224 12.0272 1.63403 11.9101 1.5807 11.7811C1.52736 11.6522 1.49994 11.514 1.5 11.3745C1.50006 11.235 1.5276 11.0968 1.58106 10.968C1.63451 10.8391 1.71282 10.722 1.81152 10.6234C1.91023 10.5247 2.02739 10.4465 2.15632 10.3932C2.28525 10.3399 2.42342 10.3124 2.56295 10.3125C2.70247 10.3126 2.84062 10.3401 2.96951 10.3936C3.09839 10.447 3.21548 10.5253 3.3141 10.624L6.50117 13.8111C6.69963 14.0109 6.81063 14.2814 6.80976 14.563C6.80888 14.8446 6.69622 15.1144 6.49652 15.313ZM18.2356 6.7617L10.807 15.2606C10.7113 15.3702 10.5941 15.459 10.4626 15.5215C10.3312 15.584 10.1883 15.6188 10.0428 15.6237H10.0069C9.86735 15.6238 9.72911 15.5963 9.60015 15.5428C9.47118 15.4894 9.35401 15.4111 9.25533 15.3123L6.07224 12.1253C5.87308 11.9259 5.76126 11.6556 5.76138 11.3738C5.7615 11.0921 5.87356 10.8219 6.0729 10.6227C6.27225 10.4235 6.54254 10.3117 6.82433 10.3118C7.10611 10.312 7.37631 10.424 7.57548 10.6234L9.55412 12.604C9.60555 12.6554 9.66701 12.6958 9.73468 12.7225C9.80235 12.7492 9.87478 12.7618 9.94749 12.7593C10.0202 12.7569 10.0916 12.7396 10.1574 12.7084C10.2231 12.6772 10.2817 12.6329 10.3296 12.5781L16.6374 5.36337C16.8228 5.15117 17.0849 5.02133 17.3661 5.0024C17.6473 4.98347 17.9244 5.07701 18.1366 5.26244C18.3488 5.44787 18.4787 5.71 18.4976 5.99117C18.5165 6.27233 18.423 6.5495 18.2376 6.7617H18.2356Z" fill="white"/>
</svg>
