<svg width="20" height="20" viewBox="0 0 20 20" fill="none" xmlns="http://www.w3.org/2000/svg">
<path fill-rule="evenodd" clip-rule="evenodd" d="M3.54167 12C4.11696 12 4.58333 12.4477 4.58333 13V14.2C4.58333 15.1941 5.4228 16 6.45833 16H13.5417C14.5772 16 15.4167 15.1941 15.4167 14.2V13C15.4167 12.4477 15.883 12 16.4583 12C17.0336 12 17.5 12.4477 17.5 13V14.2C17.5 16.2987 15.7278 18 13.5417 18H6.45833C4.27221 18 2.5 16.2987 2.5 14.2V13C2.5 12.4477 2.96637 12 3.54167 12Z" fill="white"/>
<path fill-rule="evenodd" clip-rule="evenodd" d="M6.70354 8.65391C6.48874 8.85025 6.4372 9.18253 6.5813 9.44206L9.49794 14.6949C9.60293 14.884 9.7938 15 10 15C10.2062 15 10.3971 14.884 10.5021 14.6949L13.4187 9.44206C13.5628 9.18253 13.5113 8.85025 13.2965 8.65392C13.0817 8.45758 12.7656 8.45385 12.5467 8.64507L10.8795 10.1019L10.5829 1.59841C10.5713 1.26438 10.3137 1 10 1C9.68627 1 9.42873 1.26438 9.41707 1.59841L9.12047 10.1019L7.45327 8.64507C7.23444 8.45385 6.91835 8.45758 6.70354 8.65391Z" fill="white"/>
</svg>
