<svg width="20" height="20" viewBox="0 0 20 20" fill="none" xmlns="http://www.w3.org/2000/svg">
<path fill-rule="evenodd" clip-rule="evenodd" d="M6.45991 14.6549L15.6787 5.43607C15.5528 5.21876 15.3642 4.97424 15.1318 4.74187C14.8994 4.5095 14.6549 4.32089 14.4376 4.19496L5.2188 13.4138L4.77987 15.0938L6.45991 14.6549ZM3.50716 16.9767C3.13744 17.0733 2.80042 16.7362 2.89701 16.3665L3.83609 12.7721C3.85854 12.6862 3.90349 12.6078 3.9663 12.5449L13.8364 2.67487C13.915 2.59625 14.0172 2.54278 14.1284 2.54526C15.3942 2.57356 17.3001 4.47949 17.3284 5.74527C17.3309 5.85643 17.2774 5.95868 17.1988 6.03731L7.32873 15.9074C7.26592 15.9702 7.18751 16.0151 7.10156 16.0376L3.50716 16.9767Z" fill="black"/>
</svg>
