<svg width="20" height="20" viewBox="0 0 20 20" fill="none" xmlns="http://www.w3.org/2000/svg">
<path fill-rule="evenodd" clip-rule="evenodd" d="M4.09342 9.26875C4.4301 6.3031 6.95074 4 10.0086 4C11.7988 4 13.4053 4.79005 14.4957 6.03814C14.7419 6.31988 14.713 6.74783 14.4312 6.99398C14.1495 7.24015 13.7216 7.2113 13.4755 6.92957C12.6316 5.96368 11.3918 5.35483 10.0086 5.35483C7.69868 5.35483 5.78772 7.05486 5.45976 9.26875H5.78782C6.0619 9.26875 6.30897 9.43395 6.41376 9.68721C6.51856 9.94038 6.46043 10.2319 6.2665 10.4255L5.21131 11.4793C4.94684 11.7434 4.51843 11.7434 4.25396 11.4793L3.19875 10.4255C3.00482 10.2319 2.9467 9.94038 3.05149 9.68721C3.15629 9.43395 3.40336 9.26875 3.67743 9.26875H4.09342ZM14.7886 8.71417C15.0532 8.45007 15.4816 8.45007 15.7461 8.71417L16.8012 9.76796C16.9952 9.96161 17.0533 10.2531 16.9485 10.5063C16.8437 10.7595 16.5966 10.9247 16.3226 10.9247H15.9066C15.5699 13.8903 13.0492 16.1935 9.99137 16.1935C8.20119 16.1935 6.59477 15.4034 5.50429 14.1553C5.25814 13.8735 5.28698 13.4456 5.56872 13.1995C5.85046 12.9533 6.2784 12.9822 6.52456 13.2639C7.36846 14.2298 8.60818 14.8386 9.99137 14.8386C12.3014 14.8386 14.2123 13.1386 14.5403 10.9247H14.2122C13.9381 10.9247 13.691 10.7595 13.5862 10.5063C13.4814 10.2531 13.5396 9.96161 13.7335 9.76796L14.7886 8.71417Z" fill="black"/>
</svg>
