<svg width="20" height="20" viewBox="0 0 20 20" fill="none" xmlns="http://www.w3.org/2000/svg">
<path d="M16.6729 9.58087L14.7864 9.10853C14.6342 9.07069 14.5144 8.95311 14.474 8.80143C14.4334 8.65 14.478 8.48804 14.5909 8.37899L15.989 7.02623C16.1314 6.88837 16.162 6.67126 16.0629 6.49975C15.9637 6.32803 15.7606 6.24581 15.5698 6.3002L13.6994 6.83494C13.5485 6.87781 13.386 6.83567 13.2752 6.72488C13.1641 6.61381 13.122 6.4516 13.1651 6.30066L13.6996 4.43044C13.754 4.23991 13.6718 4.03658 13.5001 3.93757C13.3283 3.83826 13.1112 3.86888 12.9736 4.01126L11.6211 5.40941C11.512 5.52196 11.3503 5.56683 11.1986 5.52623C11.0472 5.48562 10.9296 5.36605 10.8916 5.21385L10.4192 3.32717C10.3711 3.13489 10.1983 3 10.0001 3C9.80173 3 9.629 3.13489 9.58087 3.32717L9.10881 5.21393C9.07069 5.3661 8.95311 5.48546 8.80143 5.52631C8.65003 5.56691 8.48832 5.52204 8.37927 5.4095L7.02673 4.01134C6.88886 3.86894 6.67175 3.83834 6.50025 3.93765C6.32853 4.03666 6.2463 4.23999 6.30069 4.43053L6.83515 6.30074C6.8783 6.45168 6.83617 6.61389 6.7251 6.72496C6.6143 6.83576 6.45185 6.87787 6.30094 6.83502L4.43023 6.30028C4.23969 6.24589 4.03664 6.32812 3.9376 6.49984C3.83834 6.67131 3.86866 6.88842 4.01107 7.02632L5.40947 8.37908C5.52204 8.48812 5.56691 8.65008 5.52631 8.80151C5.4857 8.95322 5.36613 9.07077 5.21393 9.10861L3.32714 9.58087C3.13486 9.629 3 9.80173 3 10.0001C3 10.1984 3.13486 10.3711 3.32714 10.4192L5.2139 10.8915C5.3661 10.9294 5.48568 11.047 5.52628 11.1987C5.56689 11.3501 5.52202 11.512 5.40944 11.6211L4.01104 12.9739C3.86864 13.1117 3.83831 13.3286 3.93757 13.5004C4.03661 13.6721 4.23967 13.7543 4.4302 13.6999L6.30091 13.1652C6.45185 13.1223 6.61427 13.1644 6.72507 13.2752C6.83614 13.3863 6.87825 13.5485 6.83513 13.6994L6.30066 15.5696C6.24625 15.7602 6.3285 15.9635 6.50022 16.0625C6.67169 16.1618 6.8888 16.1312 7.0267 15.9888L8.37924 14.5907C8.48829 14.4781 8.65 14.4332 8.8014 14.4738C8.95308 14.5147 9.07066 14.6341 9.10878 14.7862L9.58084 16.673C9.62897 16.8653 9.80173 17.0002 10 17.0002C10.1983 17.0002 10.3711 16.8653 10.4192 16.673L10.8915 14.7862C10.9296 14.6341 11.0472 14.5145 11.1986 14.4738C11.3502 14.4332 11.512 14.4781 11.621 14.5907L12.9735 15.9888C13.1112 16.1312 13.3283 16.1618 13.5 16.0625C13.6717 15.9635 13.754 15.7602 13.6996 15.5696L13.1651 13.6994C13.122 13.5485 13.1641 13.3863 13.2752 13.2752C13.3859 13.1644 13.5484 13.1223 13.6993 13.1652L15.5698 13.6999C15.7606 13.7543 15.9636 13.6721 16.0629 13.5004C16.1619 13.3286 16.1313 13.1118 15.989 12.9739L14.5908 11.6211C14.478 11.512 14.4334 11.3501 14.474 11.1987C14.5143 11.047 14.6341 10.9294 14.7863 10.8915L16.6729 10.4192C16.8651 10.3711 17 10.1984 17 10.0001C17.0001 9.80176 16.8652 9.62902 16.6729 9.58087ZM8.63119 12.4652C8.13356 12.4652 7.7302 12.0618 7.7302 11.5642C7.7302 11.066 8.13356 10.6627 8.63119 10.6627C9.12934 10.6627 9.53247 11.066 9.53247 11.5642C9.53247 12.0618 9.12937 12.4652 8.63119 12.4652ZM9.15466 9.40891C8.65227 9.40891 8.24512 9.00175 8.24512 8.49936C8.24512 7.99697 8.65227 7.58982 9.15466 7.58982C9.65705 7.58982 10.0642 7.99697 10.0642 8.49936C10.0642 9.00175 9.65705 9.40891 9.15466 9.40891ZM11.5306 12.9127C11.1751 12.9127 10.887 12.6244 10.887 12.2689C10.887 11.9134 11.1751 11.6253 11.5306 11.6253C11.886 11.6253 12.1743 11.9134 12.1743 12.2689C12.1744 12.6244 11.886 12.9127 11.5306 12.9127ZM11.7128 10.4052C11.3927 10.4052 11.1334 10.146 11.1334 9.82609C11.1334 9.50595 11.3927 9.2467 11.7128 9.2467C12.0329 9.2467 12.2922 9.50592 12.2922 9.82609C12.2922 10.146 12.033 10.4052 11.7128 10.4052Z" fill="white"/>
</svg>
