<svg width="20" height="20" viewBox="0 0 20 20" fill="none" xmlns="http://www.w3.org/2000/svg">
<path fill-rule="evenodd" clip-rule="evenodd" d="M7.47036 14.4048C7.95358 16.3376 5.2959 18.3913 3.36306 16.4584C1.43021 14.5256 3.48386 11.8679 5.4167 12.3511C6.52393 12.6279 7.14932 13.1206 7.47036 14.4048ZM5.29589 13.6799L4.14826 13.9819L3.84625 15.1296L4.69188 15.9752L5.83951 15.6732L6.14151 14.5256L5.29589 13.6799Z" fill="black"/>
<path d="M14.2315 7.63888C14.2328 7.63918 14.2341 7.63948 14.2353 7.63979C15.836 8.02615 17.5879 6.94987 17.6477 4.6875C17.655 4.40812 17.3295 4.28313 17.1302 4.479C16.9851 4.62153 16.8522 4.75573 16.7297 4.87945C16.0388 5.57714 15.678 5.94157 15.3226 5.58614L14.2353 4.49891C13.8135 4.07704 14.201 3.71309 15.2877 2.69263L15.2933 2.6874C15.5014 2.49202 15.3884 2.15318 15.1031 2.15757C12.9864 2.19015 11.7448 3.83878 12.1817 5.58614L12.182 5.58727C12.4851 6.79839 13.1854 7.38535 14.2315 7.63888Z" fill="black"/>
<path d="M5.41675 12.3511C5.80333 12.4478 5.89996 12.3511 6.14157 12.1095L11.9401 6.06936C12.1817 5.82776 12.2301 5.77944 12.1817 5.58615C12.4851 6.7995 13.1868 7.3867 14.2354 7.6398C14.0408 7.59283 13.9938 7.63981 13.7522 7.88141L7.712 13.6799C7.4704 13.9216 7.37376 14.0182 7.47041 14.4048C7.14937 13.1206 6.52397 12.6279 5.41675 12.3511Z" fill="black"/>
</svg>
