<svg width="20" height="20" viewBox="0 0 20 20" fill="none" xmlns="http://www.w3.org/2000/svg">
<path d="M9.99998 10.475L10.475 16.4137L12.9 12.849L9.99998 18.5L7.09998 12.849L9.52498 16.4137L9.99998 10.475Z" fill="white"/>
<path d="M9.99998 9.525L9.52498 3.58627L7.09998 7.15098L9.99998 1.5L12.9 7.15098L10.475 3.58627L9.99998 9.525Z" fill="white"/>
<path d="M9.99998 10.475L10.475 16.4137L12.9 12.849L9.99998 18.5L7.09998 12.849L9.52498 16.4137L9.99998 10.475ZM9.99998 10.475V9.525M9.99998 9.525L9.52498 3.58627L7.09998 7.15098L9.99998 1.5L12.9 7.15098L10.475 3.58627L9.99998 9.525Z" stroke="white" stroke-linejoin="round"/>
</svg>
