<svg width="20" height="20" viewBox="0 0 20 20" fill="none" xmlns="http://www.w3.org/2000/svg">
<path fill-rule="evenodd" clip-rule="evenodd" d="M8.88455 3.51885C8.12636 4.21719 7.65183 5.2153 7.65183 6.32353C7.65183 7.44284 8.13606 8.44955 8.90675 9.14844C6.82234 10.0436 5.29939 11.9848 5.0085 14.3072C4.92345 14.9863 5.48961 15.5 6.11256 15.5H14.9984C15.0018 15.4385 14.9998 15.3753 14.9919 15.3105L14.9915 15.3072L15.9838 15.1829C15.9973 15.2914 16.0027 15.3972 16.0005 15.5H16.8875C17.5104 15.5 18.0765 14.9863 17.9915 14.3072C17.7006 11.9848 16.1777 10.0436 14.0932 9.14845C14.8639 8.44955 15.3482 7.44285 15.3482 6.32353C15.3482 4.21186 13.6253 2.5 11.5 2.5C11.0019 2.5 10.5259 2.59404 10.089 2.76522C11.9835 3.41901 13.3482 5.20936 13.3482 7.32353C13.3482 8.24789 13.0863 9.11127 12.6341 9.84408C14.4365 11.0208 15.7036 12.9463 15.9838 15.1829L14.9915 15.3072C14.9706 15.1406 14.9434 14.9759 14.9101 14.8135C14.5513 13.0633 13.4852 11.5695 12.0214 10.6388C11.7273 10.4518 11.417 10.2875 11.0932 10.1485C11.3503 9.91534 11.5755 9.64799 11.7615 9.35364C12.1331 8.76548 12.3482 8.06952 12.3482 7.32353C12.3482 5.34079 10.8293 3.71054 8.88455 3.51885Z" fill="white"/>
<path fill-rule="evenodd" clip-rule="evenodd" d="M11.0932 10.1485C11.8639 9.44955 12.3482 8.44285 12.3482 7.32353C12.3482 5.21186 10.6253 3.5 8.50002 3.5C6.37471 3.5 4.65183 5.21186 4.65183 7.32353C4.65183 8.44284 5.13606 9.44955 5.90675 10.1484C3.82234 11.0436 2.29939 12.9848 2.0085 15.3072C1.92345 15.9863 2.48961 16.5 3.11256 16.5H13.8875C14.5104 16.5 15.0765 15.9863 14.9915 15.3072C14.7006 12.9848 13.1777 11.0436 11.0932 10.1485Z" fill="white"/>
</svg>
