<svg width="20" height="20" viewBox="0 0 20 20" fill="none" xmlns="http://www.w3.org/2000/svg">
<path d="M4.36168 10L4.76121 15.3947L5.95981 13.2375L4.36168 17.1495L2.76355 13.2375L3.96215 15.3947L4.36168 10Z" fill="white"/>
<path d="M4.36168 10L3.96215 4.60527L2.76355 6.7625L4.36168 2.85046L5.95981 6.7625L4.76121 4.60527L4.36168 10Z" fill="white"/>
<path d="M4.36168 10L4.76121 15.3947L5.95981 13.2375L4.36168 17.1495L2.76355 13.2375L3.96215 15.3947L4.36168 10ZM4.36168 10L3.96215 4.60527L2.76355 6.7625L4.36168 2.85046L5.95981 6.7625L4.76121 4.60527L4.36168 10Z" stroke="white" stroke-linejoin="round"/>
<path fill-rule="evenodd" clip-rule="evenodd" d="M18 6C18 6.41421 17.6642 6.75 17.25 6.75H8.75C8.33579 6.75 8 6.41421 8 6V6C8 5.58579 8.33579 5.25 8.75 5.25H17.25C17.6642 5.25 18 5.58579 18 6V6ZM18 10C18 10.4142 17.6642 10.75 17.25 10.75H8.75C8.33579 10.75 8 10.4142 8 10V10C8 9.58579 8.33579 9.25 8.75 9.25H17.25C17.6642 9.25 18 9.58579 18 10V10ZM18 14C18 14.4142 17.6642 14.75 17.25 14.75H8.75C8.33579 14.75 8 14.4142 8 14V14C8 13.5858 8.33579 13.25 8.75 13.25H17.25C17.6642 13.25 18 13.5858 18 14V14Z" fill="white"/>
</svg>
