<svg width="20" height="20" viewBox="0 0 20 20" fill="none" xmlns="http://www.w3.org/2000/svg">
<path d="M1.75 5.20295C1.75 4.26244 2.51244 3.5 3.45295 3.5H5.52081C6.1926 3.5 6.7372 4.0446 6.7372 4.71639L-nan -nanL-nan -nanL6.7372 4.71639C6.7372 4.85075 6.84612 4.95967 6.98048 4.95967H14.9908C15.9383 4.95967 16.7035 5.73296 16.6937 6.68035L16.61 14.7111C16.5989 15.778 15.7309 16.637 14.6639 16.637H3.45295C2.51244 16.637 1.75 15.8746 1.75 14.9341L1.75 5.20295Z" fill="white"/>
<path fill-rule="evenodd" clip-rule="evenodd" d="M3.45295 15.6639H14.6639C15.1974 15.6639 15.6314 15.2344 15.637 14.7009L15.7206 6.67022C15.7248 6.26419 15.3969 5.93278 14.9908 5.93278H6.98048C6.30869 5.93278 5.76409 5.38818 5.76409 4.71639C5.76409 4.58203 5.65517 4.47311 5.52081 4.47311H3.45295C3.04987 4.47311 2.72311 4.79987 2.72311 5.20295V14.9341C2.72311 15.3371 3.04987 15.6639 3.45295 15.6639ZM3.45295 3.5C2.51244 3.5 1.75 4.26244 1.75 5.20295L1.75 14.9341C1.75 15.8746 2.51244 16.637 3.45295 16.637H14.6639C15.7309 16.637 16.5989 15.778 16.61 14.7111L16.6937 6.68035C16.7035 5.73296 15.9383 4.95967 14.9908 4.95967H6.98048C6.84612 4.95967 6.7372 4.85075 6.7372 4.71639C6.7372 4.0446 6.19261 3.5 5.52081 3.5H3.45295Z" fill="black"/>
<path d="M3.81419 8.38009C4.03079 7.5137 4.80925 6.9059 5.70231 6.9059L17.7764 6.9059C18.4094 6.9059 18.874 7.50085 18.7204 8.11503L16.9585 15.1628C16.7419 16.0292 15.9634 16.637 15.0704 16.637H2.9963C2.36322 16.637 1.89869 16.0421 2.05224 15.4279L3.81419 8.38009Z" fill="black"/>
</svg>
